<svg xmlns="http://www.w3.org/2000/svg" xmlns:xlink="http://www.w3.org/1999/xlink" version="1.1" x="0px" y="0px" viewBox="0 0 100 100" enable-background="new 0 0 100 100" xml:space="preserve"><g><g><path d="M41.8,85.9V45.5h-7.4v33.3h-9.6C13.8,78.9,5,70,5,59.1c0-8.6,5.6-16.2,13.7-18.8c-0.7-2.1-1.1-4.3-1.1-6.5    c0-10.9,8.8-19.7,19.7-19.7c9.4,0,17.3,6.4,19.2,15.5c2.7-1.8,5.9-2.8,9.2-2.8c9.1,0,16.6,7.4,16.6,16.6c0,0.9-0.1,1.9-0.2,2.8    C89.6,47.8,95,54.5,95,62.3c0,9.1-7.4,16.6-16.6,16.6H56.8L41.8,85.9z M43.3,39.1v44.5l12.6-5.9V45.5L43.3,39.1z M57.4,77.4h21    c8.3,0,15-6.8,15-15.1c0-7.3-5.2-13.5-12.4-14.8l-0.8-0.1l0.2-0.8c0.2-1.1,0.4-2.2,0.4-3.3c0-8.3-6.7-15.1-15-15.1    c-3.4,0-6.6,1.1-9.2,3.2l-1,0.8l-0.2-1.3c-1.4-8.9-9-15.4-18-15.4c-10,0-18.2,8.2-18.2,18.2c0,2.3,0.4,4.6,1.3,6.7l0.3,0.8    l-0.8,0.2C12,43.7,6.5,50.9,6.5,59.1c0,10.1,8.2,18.2,18.2,18.2h8.1V44h8.9v-7.4l15.6,8V77.4z"></path></g><g><rect x="44.9" y="61.6" width="3.3" height="1.5"></rect></g></g></svg>